<?xml version="1.0" encoding="utf-8"?>
<!-- Generator: Adobe Illustrator 16.0.0, SVG Export Plug-In . SVG Version: 6.00 Build 0)  -->
<!DOCTYPE svg PUBLIC "-//W3C//DTD SVG 1.1//EN" "http://www.w3.org/Graphics/SVG/1.1/DTD/svg11.dtd">
<svg version="1.1" id="Capa_1" xmlns="http://www.w3.org/2000/svg" xmlns:xlink="http://www.w3.org/1999/xlink" x="0px" y="0px"
	 width="726.5px" height="202px" viewBox="-5 -324 726.5 202" enable-background="new -5 -324 726.5 202" xml:space="preserve">
<rect x="845.715" y="315.604" fill="#364999" width="476.568" height="133.664"/>
<g>
	<path fill="#FFFFFF" d="M861.916,388.802c0,12.627,3.151,24.397,8.584,34.306c-8.645-10.547-13.954-24.847-13.954-40.586
		c0-32.451,22.57-58.758,50.416-58.758c3.548,0,7.015,0.428,10.354,1.244c-0.221-0.005-0.437-0.005-0.657-0.005
		C886.426,325.002,861.916,353.564,861.916,388.802z"/>
	<path fill="#FFFFFF" d="M869.844,397.808c0,11.781,2.74,22.813,7.511,32.28c-1.656-1.4-3.237-2.922-4.733-4.548
		c-4.879-9.539-7.68-20.691-7.68-32.603c0-35.236,24.509-63.801,54.743-63.801c3.552,0,7.027,0.395,10.39,1.149
		c2.637,1.586,5.129,3.435,7.469,5.521c-4.158-1.174-8.497-1.799-12.961-1.799C894.352,334.008,869.844,362.572,869.844,397.808z"/>
	<path fill="#FFFFFF" d="M957.382,382.525c0,0.347,0,0.692-0.009,1.039c-0.025,1.531-0.095,3.035-0.216,4.531
		c-2.404,29.84-23.959,53.186-50.192,53.186c-7.404,0-14.427-1.852-20.75-5.189c-7.604-10.284-12.195-23.673-12.195-38.316
		c0-32.452,22.566-58.764,50.417-58.764c6.401,0,12.516,1.394,18.146,3.937l-15.301,30.341c-2.811-2.966-6.531-4.773-10.622-4.773
		c-8.727,0-15.803,8.242-15.803,18.414s7.076,18.415,15.803,18.415c8.391,0,15.249-7.62,15.769-17.247h-10.656l4.861-10.129
		l0.061,0.131v-0.131h30.542C957.33,379.473,957.382,380.986,957.382,382.525z"/>
</g>
<text transform="matrix(0.9697 0 0 1 967.9475 418.5313)" fill="#FFFFFF" font-family="'Poppins-Regular'" font-size="67.7988">Ingenieros</text>
<ellipse fill="none" stroke="#000000" stroke-width="0.8377" stroke-miterlimit="10" cx="1828.733" cy="595.5" rx="108.891" ry="108.75"/>
<ellipse fill="#35398E" cx="2401.548" cy="482.166" rx="111.215" ry="126.5"/>
<ellipse fill="none" stroke="#000000" stroke-miterlimit="10" cx="2410.548" cy="488.166" rx="111.215" ry="126.5"/>
<ellipse fill="none" stroke="#000000" stroke-miterlimit="10" cx="2415.548" cy="491.166" rx="111.215" ry="126.5"/>
<ellipse fill="none" stroke="#000000" stroke-miterlimit="10" cx="2437.293" cy="518.004" rx="111.216" ry="126.5"/>
<ellipse fill="none" stroke="#000000" stroke-width="0.5203" stroke-miterlimit="10" cx="2415.548" cy="484.579" rx="57.86" ry="65.812"/>
<polygon fill="none" stroke="#000000" stroke-miterlimit="10" points="2402.82,473.121 2478.084,342.759 2553.348,473.124 "/>
<polygon fill="none" stroke="#000000" stroke-width="0.2385" stroke-miterlimit="10" points="2434.983,503.711 2452.933,472.622 
	2470.882,503.711 "/>
<rect x="2452.933" y="472.622" fill="none" stroke="#000000" stroke-width="0.2385" stroke-miterlimit="10" width="65.733" height="31.089"/>
<text transform="matrix(1 0 0 1 971.4475 357.3594)" fill="#FFFFFF" font-family="'Quicksand-Light'" font-size="25.1931">Grupo V&amp;G</text>
<g>
	<g>
		<path fill="#232450" d="M861.916,533.246c0,12.628,3.151,24.397,8.584,34.306c-8.645-10.546-13.954-24.847-13.954-40.586
			c0-32.452,22.57-58.758,50.416-58.758c3.548,0,7.015,0.428,10.354,1.244c-0.221-0.005-0.437-0.005-0.657-0.005
			C886.426,469.446,861.916,498.009,861.916,533.246z"/>
		<path fill="#232450" d="M869.844,542.252c0,11.781,2.74,22.813,7.511,32.279c-1.656-1.4-3.237-2.921-4.733-4.547
			c-4.879-9.54-7.68-20.691-7.68-32.604c0-35.237,24.509-63.8,54.743-63.8c3.552,0,7.027,0.394,10.39,1.149
			c2.637,1.587,5.129,3.435,7.469,5.52c-4.158-1.173-8.497-1.798-12.961-1.798C894.352,478.452,869.844,507.016,869.844,542.252z"/>
	</g>
	<path fill="#E52D12" d="M957.382,526.97c0,0.347,0,0.692-0.009,1.038c-0.025,1.531-0.095,3.036-0.216,4.532
		c-2.404,29.84-23.959,53.186-50.192,53.186c-7.404,0-14.427-1.852-20.75-5.189c-7.604-10.284-12.195-23.674-12.195-38.317
		c0-32.452,22.566-58.763,50.417-58.763c6.401,0,12.516,1.393,18.146,3.936l-15.301,30.341c-2.811-2.966-6.531-4.773-10.622-4.773
		c-8.727,0-15.803,8.243-15.803,18.415s7.076,18.415,15.803,18.415c8.391,0,15.249-7.622,15.769-17.248h-10.656l4.861-10.128
		l0.061,0.129v-0.129h30.542C957.33,523.917,957.382,525.43,957.382,526.97z"/>
</g>
<text transform="matrix(0.9697 0 0 1 967.9475 562.9746)" fill="#3F3F3E" font-family="'Poppins-Regular'" font-size="67.7988">Ingenieros</text>
<text transform="matrix(1 0 0 1 971.4475 501.8037)" fill="#838382" font-family="'Quicksand-Light'" font-size="25.1931">Grupo V&amp;G</text>
<g>
	<path fill="#E52D12" d="M881.007,832.358c0,11.281,3.15,21.8,8.583,30.651c-8.645-9.423-13.954-22.201-13.954-36.263
		c0-28.997,22.571-52.503,50.416-52.503c3.548,0,7.015,0.386,10.354,1.111c-0.221-0.005-0.437-0.005-0.656-0.005
		C905.516,775.354,881.007,800.876,881.007,832.358z"/>
	<path fill="#E52D12" d="M888.934,840.405c0,10.524,2.74,20.381,7.511,28.841c-1.656-1.25-3.237-2.608-4.732-4.063
		c-4.88-8.524-7.681-18.486-7.681-29.132c0-31.484,24.51-57.006,54.743-57.006c3.552,0,7.027,0.354,10.39,1.027
		c2.637,1.418,5.13,3.068,7.469,4.934c-4.158-1.049-8.497-1.607-12.961-1.607C913.442,783.399,888.934,808.923,888.934,840.405z"/>
	<path fill="#232450" d="M976.472,826.75c0,0.311,0,0.618-0.008,0.928c-0.026,1.369-0.096,2.713-0.217,4.049
		c-2.404,26.663-23.959,47.521-50.192,47.521c-7.404,0-14.426-1.654-20.75-4.636c-7.604-9.19-12.195-21.153-12.195-34.238
		c0-28.994,22.566-52.505,50.417-52.505c6.401,0,12.517,1.246,18.146,3.518l-15.302,27.109c-2.811-2.65-6.53-4.265-10.622-4.265
		c-8.727,0-15.803,7.364-15.803,16.453s7.076,16.452,15.803,16.452c8.391,0,15.249-6.81,15.769-15.411h-10.656l4.861-9.049
		l0.061,0.116v-0.116h30.542C976.42,824.021,976.472,825.374,976.472,826.75z"/>
</g>
<text transform="matrix(0.9697 0 0 1 991.4944 775.5313)" fill="#616160" font-family="'Poppins-Regular'" font-size="67.7988">Ingenieros</text>
<text transform="matrix(1 0 0 1 994.9944 714.3604)" fill="#9F9F9F" font-family="'Quicksand-Light'" font-size="25.1931">Grupo V&amp;G</text>
<path fill="#838382" d="M354.539,685.767v14.642c-4.93-6.812-12.939-11.24-22-11.24c-7.84,0-14.909,3.33-19.869,8.65
	c-2.78,2.979-4.9,6.59-6.11,10.59c-0.01,0.01-0.01,0.01-0.01,0.01l-10.33,17.9l-15.99,27.688l-42.92-74.34h12.51l30.41,52.67
	l17.38-30.09l5.261-9.11c5.01-6.398,12.05-11.14,20.149-13.25c3.04-0.8,6.23-1.22,9.52-1.22
	C340.75,678.667,348.35,681.297,354.539,685.767z"/>
<path fill="#E6332A" d="M360.729,715.307v26.012c-0.01,0.01-0.01,0.02-0.02,0.02c-6.9,7.771-16.961,12.67-28.171,12.67
	c-17.34,0-31.949-11.729-36.319-27.688l10.33-17.9c-0.76,2.51-1.17,5.17-1.17,7.92c0,15,12.159,27.17,27.159,27.17
	c6.851,0,13.091-2.53,17.86-6.71v-21.49h10.33V715.307z"/>
<path fill="#4B414F" d="M360.729,741.317v0.02h-0.02C360.72,741.337,360.72,741.327,360.729,741.317z"/>
<polygon fill="#616160" points="329.915,523.471 287,597.804 244.084,523.471 "/>
<polygon fill="#7B7A86" points="329.915,501.804 287,576.137 244.084,501.804 "/>
<circle fill="#908FB2" cx="339.313" cy="560.138" r="37.666"/>
<circle fill="#6A534E" cx="339.313" cy="560.138" r="27.166"/>
<rect x="357.166" y="558.97" fill="#4B414F" width="10.334" height="26.027"/>
<rect x="361.312" y="522.644" fill="#58666A" width="10.333" height="36.326"/>
<rect x="374.971" y="682.004" fill="#908FB2" width="2.018" height="68.833"/>
<text transform="matrix(1 0 0 1 388.2288 706.0869)" fill="#836E69" font-family="'MyriadPro-Regular'" font-size="18">Grupo</text>
<text transform="matrix(1 0 0 1 385.8958 741.3174)" fill="#2D2533" font-family="'Poppins-Regular'" font-size="36">INGENIEROS</text>
<g>
	<text transform="matrix(1 0 0 1 394.0042 838.1816)" fill="#5A894D" font-family="'Rockwell-ExtraBold'" font-size="36">INGENIEROS</text>
	<path d="M368.35,785.364v13.331c-4.489-6.201-11.783-10.234-20.033-10.234c-7.139,0-13.577,3.032-18.094,7.877
		c-2.531,2.713-4.461,6-5.563,9.644c-0.009,0.009-0.009,0.009-0.009,0.009l-9.406,16.3l-14.561,25.214l-39.083-67.693h11.392
		l27.69,47.961l15.826-27.398l4.79-8.296c4.562-5.827,10.972-10.145,18.348-12.065c2.768-0.729,5.673-1.109,8.669-1.109
		C355.793,778.899,362.713,781.294,368.35,785.364z"/>
	<path fill="#287431" d="M373.986,812.263v23.687c-0.009,0.009-0.009,0.018-0.019,0.018c-6.283,7.075-15.443,11.537-25.651,11.537
		c-15.79,0-29.093-10.681-33.072-25.214l9.406-16.3c-0.692,2.285-1.064,4.708-1.064,7.212c0,13.659,11.072,24.74,24.731,24.74
		c6.238,0,11.919-2.305,16.263-6.109v-19.569L373.986,812.263L373.986,812.263z"/>
	<path fill="#4B414F" d="M373.986,835.948v0.018h-0.019C373.978,835.966,373.978,835.957,373.986,835.948z"/>
	<rect x="381.744" y="778.868" fill="#908FB2" width="2.019" height="68.833"/>
	<text transform="matrix(1 0 0 1 395.0042 802.9512)" fill="#3B3233" font-family="'MyriadPro-Regular'" font-size="18">Grupo</text>
	<text transform="matrix(1 0 0 1 392.6702 838.1816)" fill="#287431" font-family="'Rockwell-ExtraBold'" font-size="36">INGENIEROS</text>
</g>
<path fill="#E6332A" d="M372.329,1128l-34.21,59.26c5.07-8.35,13.11-14.688,22.65-17.56l11.56-20.03l11.561,20.03
	c9.54,2.87,17.58,9.21,22.649,17.56L372.329,1128z"/>
<path fill="#29235C" d="M410.11,1213.78h-0.77l0.6,1.04v0.01c-0.01,0.09-0.02,0.189-0.05,0.29c-0.59,3.35-1.63,6.56-3.05,9.55
	c-6.13,12.91-19.28,21.83-34.511,21.83c-15.229,0-28.38-8.92-34.5-21.83c-1.46-3.08-2.52-6.39-3.109-9.859
	c-0.36-2.109-0.55-4.271-0.55-6.479c0-1.811,0.13-3.59,0.369-5.33c1.971-14.1,11.631-25.72,24.61-30.5
	c4.11-1.5,8.55-2.33,13.18-2.33c4.631,0,9.07,0.83,13.181,2.33c12.95,4.771,22.6,16.34,24.6,30.391h-11.74
	c-2.52-12.62-13.67-22.13-27.04-22.13c-13.409,0-24.569,9.561-27.05,22.239c-0.34,1.73-0.52,3.511-0.52,5.33
	c0,6.11,1.99,11.771,5.359,16.34c5.021,6.82,13.101,11.24,22.21,11.24c9.11,0,17.2-4.42,22.21-11.24
	c2.08-2.819,3.641-6.05,4.521-9.55h-24.94v-10.89h37.16c0.15,1.35,0.221,2.71,0.221,4.1C410.5,1210.18,410.369,1212,410.11,1213.78z
	"/>
<polygon fill="#329949" points="213.282,1205.25 256.583,1130.25 299.884,1205.25 "/>
<polygon fill="#6CAB69" points="213.282,1226.917 256.583,1151.917 299.884,1226.917 "/>
<circle fill="#98BF8E" cx="256.583" cy="1210.251" r="40"/>
<circle fill="#62905D" cx="256.583" cy="1210.584" r="38.167"/>
<circle fill="#687D64" cx="255.583" cy="1210.584" r="27.578"/>
<rect x="257.375" y="1206.483" fill="#525951" width="37.375" height="10.892"/>
<rect x="257.375" y="1205.139" fill="#947C5C" width="37.375" height="10.893"/>
<g>
	<linearGradient id="SVGID_1_" gradientUnits="userSpaceOnUse" x1="19.5403" y1="54.3115" x2="126.2883" y2="54.3115">
		<stop  offset="0" style="stop-color:#43B02A"/>
		<stop  offset="0.5026" style="stop-color:#006A0C"/>
		<stop  offset="1" style="stop-color:#034959"/>
	</linearGradient>
	<path fill="url(#SVGID_1_)" d="M126.288,26.475v13.332c-4.489-6.201-11.783-10.234-20.033-10.234
		c-7.139,0-13.576,3.031-18.094,7.877c-2.53,2.713-4.461,6-5.563,9.643c-0.01,0.008-0.01,0.008-0.01,0.008L73.183,63.4
		L58.622,88.613L19.54,20.92h11.391l27.691,47.961l15.825-27.398l4.79-8.297c4.563-5.827,10.973-10.143,18.35-12.065
		c2.768-0.729,5.672-1.111,8.668-1.111C113.731,20.01,120.651,22.404,126.288,26.475z"/>
	<linearGradient id="SVGID_2_" gradientUnits="userSpaceOnUse" x1="73.1829" y1="67.8574" x2="131.925" y2="67.8574">
		<stop  offset="0" style="stop-color:#43B02A"/>
		<stop  offset="0.466" style="stop-color:#006A0C"/>
		<stop  offset="1" style="stop-color:#00402D"/>
	</linearGradient>
	<path fill="url(#SVGID_2_)" d="M131.925,53.373v23.686c-0.009,0.01-0.009,0.019-0.02,0.019
		c-6.281,7.075-15.442,11.537-25.65,11.537c-15.789,0-29.093-10.681-33.072-25.214l9.406-16.3c-0.691,2.285-1.065,4.709-1.065,7.212
		c0,13.658,11.073,24.74,24.731,24.74c6.238,0,11.92-2.305,16.264-6.109V53.374L131.925,53.373L131.925,53.373z"/>
	<path fill="#4B414F" d="M131.925,77.059v0.019h-0.02C131.916,77.076,131.916,77.068,131.925,77.059z"/>
	<rect x="139.684" y="19.979" fill="#43B02A" width="2.019" height="68.833"/>
	<text transform="matrix(1 0 0 1 152.9421 40.0625)" fill="#3A3738" font-family="'Poppins-Regular'" font-size="18">Grupo</text>
	<text transform="matrix(1 0 0 1 150.9426 82.8125)" fill="#00402D" font-family="'Poppins-Regular'" font-size="48">INGENIEROS</text>
</g>
<g>
	<linearGradient id="SVGID_3_" gradientUnits="userSpaceOnUse" x1="12.0403" y1="-63.1904" x2="124.4202" y2="-63.1904">
		<stop  offset="0" style="stop-color:#FFC200"/>
		<stop  offset="1" style="stop-color:#FF4B00"/>
	</linearGradient>
	<path fill="url(#SVGID_3_)" d="M124.42-64.13v23.69c0,0.01,0,0.02-0.01,0.02c-6.29,7.07-15.45,11.53-25.66,11.53
		c-15.78,0-29.09-10.68-33.07-25.21L51.12-28.89L12.04-96.58h11.39l27.69,47.96l15.83-27.4l4.79-8.29
		c4.56-5.83,10.97-10.15,18.35-12.07c2.76-0.73,5.67-1.11,8.66-1.11c7.48,0,14.4,2.39,20.04,6.47v13.33
		c-4.49-6.2-11.79-10.24-20.04-10.24c-7.13,0-13.57,3.03-18.09,7.88c-2.53,2.71-4.46,6-5.56,9.64c-0.01,0.01-0.01,0.01-0.01,0.01
		c-0.69,2.28-1.07,4.71-1.07,7.21c0,13.66,11.08,24.74,24.73,24.74c6.24,0,11.92-2.3,16.27-6.11v-19.57H124.42z"/>
	<path fill="#4B414F" d="M124.425-40.441v0.019h-0.02C124.416-40.424,124.416-40.432,124.425-40.441z"/>
	<rect x="132.184" y="-97.521" fill="#FF7715" width="2.019" height="68.833"/>
	<text transform="matrix(1 0 0 1 145.4421 -77.4375)" fill="#3A3738" font-family="'Poppins-Regular'" font-size="18">Grupo</text>
	<text transform="matrix(1 0 0 1 143.4426 -34.6875)" fill="#343436" font-family="'Poppins-Regular'" font-size="48">INGENIEROS</text>
</g>
<linearGradient id="SVGID_4_" gradientUnits="userSpaceOnUse" x1="6.2502" y1="-190.1045" x2="710.2502" y2="-190.1045">
	<stop  offset="0" style="stop-color:#CCCCCC"/>
	<stop  offset="1" style="stop-color:#FFFFFF"/>
</linearGradient>
<rect x="6.25" y="-253.104" fill="url(#SVGID_4_)" width="704" height="126"/>
<g>
	<linearGradient id="SVGID_5_" gradientUnits="userSpaceOnUse" x1="296.0403" y1="-195.1904" x2="408.4202" y2="-195.1904">
		<stop  offset="0" style="stop-color:#FFC200"/>
		<stop  offset="1" style="stop-color:#FF4B00"/>
	</linearGradient>
	<path fill="url(#SVGID_5_)" d="M408.42-196.13v23.69c0,0.01,0,0.02-0.01,0.02c-6.29,7.07-15.45,11.53-25.66,11.53
		c-15.779,0-29.09-10.68-33.07-25.21l-14.56,25.21l-39.08-67.69h11.39l27.69,47.96l15.83-27.4l4.79-8.29
		c4.56-5.83,10.97-10.15,18.35-12.07c2.76-0.73,5.67-1.11,8.66-1.11c7.48,0,14.4,2.39,20.04,6.47v13.33
		c-4.49-6.2-11.79-10.24-20.04-10.24c-7.13,0-13.57,3.03-18.09,7.88c-2.53,2.71-4.46,6-5.561,9.64c-0.01,0.01-0.01,0.01-0.01,0.01
		c-0.689,2.28-1.07,4.71-1.07,7.21c0,13.66,11.08,24.74,24.73,24.74c6.24,0,11.92-2.3,16.27-6.11v-19.57H408.42z"/>
	<path fill="#4B414F" d="M408.425-172.441v0.019h-0.02C408.416-172.424,408.416-172.432,408.425-172.441z"/>
	<rect x="416.184" y="-229.521" fill="#FF7715" width="2.019" height="68.833"/>
	<text transform="matrix(1 0 0 1 429.4417 -209.4375)" fill="#3A3738" font-family="'Poppins-Regular'" font-size="18">Grupo</text>
	<text transform="matrix(1 0 0 1 427.4426 -166.6875)" fill="#343436" font-family="'Poppins-Regular'" font-size="48">INGENIEROS</text>
</g>
<text transform="matrix(1 0 0 1 36.0403 -203)"><tspan x="0" y="0" font-family="'Poppins-Regular'" font-size="36">Tu futuro </tspan><tspan x="0" y="43.2" font-family="'Poppins-Regular'" font-size="36">empieza aquí!</tspan></text>
<text transform="matrix(1 0 0 1 462.9143 -143)" font-family="'Poppins-Regular'" font-size="12">https://fmunives.github.io/GrupoVG/</text>
<image overflow="visible" width="71" height="128" xlink:href="phone.png"  transform="matrix(0.0846 0 0 0.0846 504.0745 -313.4341)">
</image>
<text transform="matrix(1 0 0 1 516.0833 -303.6016)" fill="#333333" font-family="'Poppins-Regular'" font-size="12">955-559-596</text>
<text transform="matrix(1 0 0 1 36.0403 -304.375)" fill="#333333" font-family="'Poppins-Regular'" font-size="12">cuenta BCP: 193-2619069-0-41</text>
<text transform="matrix(1 0 0 1 36.0403 -284.375)" fill="#333333" font-family="'Poppins-Regular'" font-size="12">cuenta CCI BCP: 002193002619069041117</text>
<text transform="matrix(1 0 0 1 36.0403 -266.1016)" fill="#333333" font-family="'Poppins-Regular'" font-size="12">titular: Velarde Guillen &amp; Ingeniería y Construcción</text>
<text transform="matrix(1 0 0 1 516.0833 -285.1016)" fill="#333333" font-family="'Poppins-Regular'" font-size="12">01-6913936</text>
<text transform="matrix(1 0 0 1 516.0833 -266.1016)" fill="#333333" font-family="'Poppins-Regular'" font-size="12">gerencia.grupovg@gmail.com</text>
<image overflow="visible" width="128" height="128" xlink:href="phone2.png"  transform="matrix(0.0985 0 0 0.0985 500.5276 -294.5273)">
</image>
<image overflow="visible" width="128" height="128" xlink:href="email.png"  transform="matrix(0.0914 0 0 0.0914 500.9768 -275.9023)">
</image>
<image overflow="visible" width="128" height="128" xlink:href="credit_card.png"  transform="matrix(0.0956 0 0 0.0956 13.3333 -313.9072)">
</image>
<image overflow="visible" width="128" height="128" xlink:href="credit_card.png"  transform="matrix(0.0956 0 0 0.0956 13.3333 -294.1064)">
</image>
<image overflow="visible" width="128" height="128" xlink:href="account.png"  transform="matrix(0.1219 0 0 0.1219 12.6482 -276.8984)">
</image>
</svg>
