<?xml version="1.0" encoding="UTF-8"?>
<!DOCTYPE svg PUBLIC "-//W3C//DTD SVG 1.1//EN" "http://www.w3.org/Graphics/SVG/1.1/DTD/svg11.dtd">
<!-- Creator: CorelDRAW -->
<svg xmlns="http://www.w3.org/2000/svg" xml:space="preserve" width="295px" height="236px" style="shape-rendering:geometricPrecision; text-rendering:geometricPrecision; image-rendering:optimizeQuality; fill-rule:evenodd; clip-rule:evenodd"
viewBox="0 0 295 236"
 xmlns:xlink="http://www.w3.org/1999/xlink">
 <defs>
  <style type="text/css">
   <![CDATA[
    .fil0 {fill:blue}
    .fil1 {fill:#003399}
   ]]>
  </style>
 </defs>
 <g id="Capa_x0020_1">
  <metadata id="CorelCorpID_0Corel-Layer"/>
  <g id="_36360184">
   <path id="_36360832" class="fil0" d="M177.719 209.236l92.9108 -92.912 -59.9369 -59.2915c-11.6006,8.54438 -48.4154,49.1753 -60.4089,62.1117l27.7666 25.0998c6.95138,-4.69286 12.0006,-10.6212 17.7413,-17.1088 2.44614,-2.76356 16.7949,-21.3261 17.4239,-10.7864 0.24308,4.08752 -30.7071,32.0653 -35.4991,36.6815l-35.7033 -36.3818 63.4486 -65.5372 -27.7442 -27.0409 -92.2559 92.9132 92.2571 92.2524z"/>
   <path id="_36360952" class="fil1" d="M20.1745 116.32l94.1746 94.0684 27.0196 -28.3696 -64.887 -65.3614c3.4928,-6.39206 54.0806,-55.9167 63.5808,-65.6115l-27.6415 -26.9772 -92.2465 92.2512z"/>
  </g>
 </g>
</svg>
